<svg width="124" height="42" viewBox="0 0 124 42" fill="none" xmlns="http://www.w3.org/2000/svg">
<path d="M56.3818 32.7572C55.1565 32.1102 53.9648 31.1212 53.437 29.8703C51.8373 26.0783 55.7107 12.4471 56.9587 6.05904C57.1199 5.34106 57.2124 4.91625 57.2198 4.88342C57.4763 3.68148 57.7242 1.72869 56.7064 0.790581C56.0826 0.215508 55.2677 0.0274588 54.4053 0.107323C53.436 0.219109 52.4759 0.399193 51.5321 0.646386C51.5321 0.646386 44.305 14.9888 43.5882 17.0699C43.5295 16.7691 42.9209 8.87353 42.5531 7.66473C42.0386 6.14114 41.2854 4.54272 38.9228 4.40005C38.6937 4.38628 36.0752 4.15246 34.3876 5.85436C35.394 5.84325 36.3396 6.73074 36.4825 7.27044C36.7713 8.36459 36.4367 9.19082 36.2186 10.5353C35.5449 14.693 32.5619 31.5364 32.7068 34.285C32.7865 35.8038 33.5455 40.2745 40.0615 38.2819C38.2076 36.797 38.442 34.7012 38.4653 33.8976C38.5624 30.5191 39.5052 25.1237 40.4967 19.5246C41.3448 23.7687 42.0371 26.5931 42.0371 26.5931C42.0371 26.5931 42.2496 27.5691 42.9848 27.7479C44.0898 28.0161 45.4514 27.3975 45.4514 27.3975C45.3652 26.5373 45.9649 23.8412 46.2184 22.7707C47.0343 19.3251 48.4371 15.4476 50.0246 12.826C50.0179 12.8855 50.011 12.9439 50.004 13.0047C49.6788 15.7719 49.1043 18.2568 48.6407 21.0056C48.185 23.7032 47.3978 26.4304 47.7472 29.1617C48.4463 34.6126 54.713 33.3547 56.3818 32.7572ZM77.4851 24.1459C80.1773 25.492 83.2661 24.2364 85.4555 22.5986C86.9472 21.4927 88.2199 20.1186 89.2085 18.5466C89.6947 20.0319 90.7435 21.2676 92.1297 21.9892C95.3605 23.7349 98.3961 21.8041 100.172 20.3086C100.904 19.6915 102.371 18.3052 103.339 15.7386C104.189 13.484 104.648 10.612 103.164 9.33804C102.243 8.54675 100.566 8.39636 99.5792 9.48431C101.616 9.43566 101.324 11.8774 100.792 13.2355C100.092 15.0192 97.6234 18.0542 95.4206 16.5762C93.5312 15.3082 94.8523 11.9321 95.7224 10.3827C96.3689 9.22503 97.2926 8.24596 98.4105 7.53332C99.7217 6.68716 101.7 6.79632 102.622 7.45824C102.622 7.45824 101.666 3.14001 97.7816 3.83749C97.7752 3.83889 94.5946 4.2586 91.8005 7.6473C90.3523 9.4017 89.034 12.3637 88.8386 15.2298C88.1072 16.2102 87.1007 17.0657 86.1916 17.756C84.7921 18.8194 82.5709 20.0931 80.8578 18.862C78.6393 17.2673 80.1672 12.4908 82.2462 10.3332C82.5073 10.0512 82.7998 9.8001 83.1183 9.58495C84.0951 8.97857 84.4223 9.60833 84.4223 9.99737C84.4223 10.4433 84.2695 11.3417 83.453 12.4778C83.4215 12.5222 83.388 12.5673 83.3521 12.6136L83.6024 12.6576C83.8933 12.6576 87.6067 13.0204 87.5478 8.90267C87.4818 7.62435 86.8113 6.45376 85.7423 5.74963C82.3408 3.46923 78.459 7.05053 76.7149 9.56829C73.9991 13.4857 71.9795 21.3928 77.4851 24.1459ZM121.131 28.9014C119.297 28.0745 111.478 25.6362 97.3828 26.4285C93.2198 26.662 89.2319 27.0784 85.1841 27.683C81.8138 28.1727 78.4861 28.9219 75.2313 29.9239C74.9446 30.0128 73.6755 30.4138 74.0193 32.3022C86.7922 29.8402 99.2911 29.4672 112.956 31.8157C118.129 32.7048 121.232 33.7128 121.232 33.7128C121.424 33.174 121.533 32.8595 121.542 32.833C121.901 31.7888 122.57 29.5505 121.131 28.9014ZM61.1986 41.3234C64.299 41.471 68.2724 39.7508 69.843 33.5109C71.5316 26.8055 72.5156 11.5978 72.5279 11.4053C72.5924 10.3307 72.5514 8.60546 71.5439 7.91537C70.9275 7.49233 70.183 7.38168 69.4283 7.48342C68.8955 7.55572 67.8358 7.78228 67.0119 7.99892C67.0414 8.11166 67.5834 21.9551 63.6941 25.356C63.3092 25.6926 62.2145 25.9231 62.6405 24.6714C64.888 18.0807 64.6411 14.7405 64.0002 12.5689C63.3758 10.4518 59.5438 8.39526 56.4907 12.0218C58.8169 11.9827 58.8294 13.7425 58.8473 14.0644C58.9215 15.386 58.5448 17.4903 58.1482 19.3368C57.5123 22.3062 56.4045 27.0447 57.7875 28.7439C58.9365 30.1559 60.6389 30.1038 62.2976 29.4185C63.9198 28.7483 65.5439 26.9229 66.4232 24.8481C66.4232 24.8481 65.9558 29.9552 64.8656 33.6937C64.6762 34.3424 63.8895 37.0452 61.7293 37.7461C61.2984 37.8855 59.369 38.5023 58.2044 36.5514C58.0553 37.1601 57.4896 40.6152 60.7558 41.2697C60.7931 41.276 61.0945 41.3185 61.1986 41.3234ZM120.881 24.6806H120.63V25.0847H120.876C120.956 25.0929 121.036 25.0754 121.104 25.0348C121.148 24.9932 121.17 24.934 121.165 24.8738C121.172 24.8162 121.148 24.7592 121.103 24.7225C121.034 24.6888 120.958 24.6743 120.881 24.6806ZM120.868 24.5074C121.002 24.496 121.136 24.5266 121.252 24.595C121.334 24.6635 121.377 24.7679 121.367 24.8745C121.384 25.0389 121.276 25.1898 121.115 25.2271L121.422 25.6381H121.17L120.889 25.2583H120.629V25.6381H120.431V24.5072L120.868 24.5074ZM120.871 24.1388C120.337 24.1302 119.896 24.5548 119.885 25.0888C119.896 25.6224 120.337 26.047 120.871 26.038C121.404 26.0471 121.845 25.6226 121.856 25.0888C121.845 24.555 121.405 24.1301 120.871 24.1388ZM120.871 23.9956C121.485 23.9851 121.992 24.474 122.005 25.0885C121.992 25.703 121.485 26.1916 120.871 26.181C120.256 26.1916 119.749 25.703 119.737 25.0885C119.749 24.474 120.256 23.985 120.871 23.9956ZM104.166 18.3684C103.828 19.3945 103.428 21.0765 104.228 21.984C104.718 22.54 105.413 22.8235 106.168 22.903C106.705 22.9599 107.79 22.991 108.643 22.9764C108.643 22.8593 111.649 9.31246 116.285 6.9371C116.744 6.70214 117.864 6.73818 117.131 7.85073C113.273 13.707 112.659 17.0025 112.727 19.2593C112.793 21.4588 115.982 24.3603 119.867 21.5688C117.602 21.0562 118.039 19.3471 118.104 19.0309C118.369 17.7319 119.27 15.7818 120.126 14.0859C121.499 11.3579 123.783 7.02725 122.874 5.05288C122.121 3.41177 120.457 3.05953 118.674 3.3308C117.038 3.58016 115.138 4.81631 113.77 6.45882C113.817 6.33868 113.849 6.26141 113.851 6.25732C114.179 5.55358 114.603 4.39071 114.068 3.7029C113.688 3.21822 113.13 2.90463 112.518 2.8312C109.944 2.4291 108.013 3.58373 107.151 4.61834C108.763 4.83392 108.592 6.13274 108.468 6.46267C106.263 12.3571 104.204 18.2514 104.166 18.3684Z" fill="#363455"/>
<path d="M0.675568 12.7198C0.304962 12.7222 0.00247192 12.424 0 12.0535C0.00219727 11.6829 0.30423 11.3836 0.674713 11.3858H4.72885C5.09933 11.383 5.40176 11.6813 5.40457 12.0517V12.0528C5.40225 12.4232 5.10007 12.7219 4.72946 12.7198H0.675568ZM9.74234 18.3915C9.71335 17.5652 9.73291 16.7386 9.73206 15.9121C9.73102 15.0953 9.73102 14.2785 9.73206 13.4616H9.7374C9.7374 11.8276 9.71844 10.1939 9.74377 8.56056C9.7616 7.38612 10.7457 6.40913 11.9269 6.32646C13.3622 6.22655 14.489 7.18745 14.5812 8.5919C14.5878 8.69139 14.594 8.79069 14.594 8.89049C14.5948 11.959 14.5948 15.0272 14.594 18.0956C14.5928 19.3045 13.9489 20.194 12.8498 20.5252C12.6226 20.5939 12.3864 20.6289 12.1489 20.6289C10.9059 20.6274 9.78647 19.6701 9.74234 18.3915ZM0.223267 22.633C0.0935364 21.1991 0.173828 19.7475 0.159393 18.3032C0.155426 17.9149 0.157166 17.5263 0.159393 17.1377C0.166779 15.7389 1.19449 14.6951 2.57156 14.6871C3.89395 14.6618 4.98651 15.7135 5.01178 17.036C5.01221 17.0638 5.01233 17.0916 5.01193 17.1195C5.02554 18.5935 5.01028 20.068 5.01639 21.5419C5.04974 24.8374 7.37131 27.6661 10.5971 28.3417C15.058 29.3014 19.2696 26.0188 19.2971 21.5557C19.3062 20.0716 19.2913 18.5874 19.3023 17.1031C19.283 15.9706 20.0689 14.9832 21.1768 14.7475C22.6302 14.3995 24.1116 15.4804 24.1524 16.9405C24.1767 17.8067 24.1773 21.5557 24.0946 22.5542C23.8451 25.5511 22.5504 28.0814 20.2957 30.1247C18.3256 31.9253 15.806 33.009 13.144 33.2005C12.8014 33.2296 12.4606 33.2441 12.1219 33.2441C6.07941 33.2435 0.776276 28.7295 0.223267 22.633ZM21.7408 7.21229C20.167 7.21229 18.8911 8.45228 18.8911 9.98192C18.8911 11.5116 20.167 12.7517 21.7408 12.7517C23.3148 12.7517 24.5908 11.5116 24.5908 9.98192C24.5908 8.45228 23.3148 7.21229 21.7408 7.21229Z" fill="#363455"/>
</svg>
